<svg xmlns="http://www.w3.org/2000/svg" viewBox="0 0 204.04 204.04"><title>Ativo 1</title><g id="Camada_2" data-name="Camada 2"><g id="Layer_1" data-name="Layer 1"><path d="M58.3,67.4a55.77,55.77,0,1,0,87.44,0h48.6a3.7,3.7,0,0,0,3.7-3.7V22.09A16.13,16.13,0,0,0,182,6H22.09A16.15,16.15,0,0,0,6,22.09V63.7a3.7,3.7,0,0,0,3.7,3.7Z" style="fill:none;stroke:#171640;stroke-linecap:round;stroke-linejoin:round;stroke-width:12px;fill-rule:evenodd"/><path d="M102,76.87h0A25.16,25.16,0,1,0,127.18,102" style="fill:none;stroke:#171640;stroke-linecap:round;stroke-linejoin:round;stroke-width:12px;fill-rule:evenodd"/><path d="M6,86.82V182A16.14,16.14,0,0,0,22.09,198H182A16.15,16.15,0,0,0,198,182V86.82" style="fill:none;stroke:#171640;stroke-linecap:round;stroke-linejoin:round;stroke-width:12px;fill-rule:evenodd"/><path d="M158.89,22.41h14.29a7.43,7.43,0,0,1,7.4,7.4V44.1a7.45,7.45,0,0,1-7.4,7.4H158.89a7.43,7.43,0,0,1-7.4-7.4V29.81a7.43,7.43,0,0,1,7.4-7.4Z" style="fill:none;stroke:#171640;stroke-linecap:round;stroke-linejoin:round;stroke-width:12px;fill-rule:evenodd"/></g></g></svg>