<svg xmlns="http://www.w3.org/2000/svg" viewBox="0 0 236.11 236.11"><title>Ativo 1</title><g id="Camada_2" data-name="Camada 2"><g id="Layer_1" data-name="Layer 1"><path d="M175.89,6H59.63C29.35,6,6,29.35,6,59.63V176.48c0,30.28,23.35,53.63,53.63,53.63H176.47c30.29,0,53.64-23.35,53.64-53.63V121.67" style="fill:none;stroke:#171640;stroke-linecap:round;stroke-linejoin:round;stroke-width:12px"/><path d="M175.89,6c15.14,0,29.44,4.93,39.36,14.86" style="fill:none;stroke:#171640;stroke-linecap:round;stroke-linejoin:round;stroke-width:12px"/><path d="M230.11,100V67.45" style="fill:none;stroke:#171640;stroke-linecap:round;stroke-linejoin:round;stroke-width:12px"/><path d="M81.91,194H49.38V96.37H81.91Zm-1-127.51C80.75,88,48,88,47.86,66.45A16.5,16.5,0,0,1,64.36,50m126,89.79V194H161.43V146.44c0-10.95-.58-25-15.59-25-15.25,0-16.94,11.93-16.94,24.25V194H100V96.37h25.3v14.45h1.13c3.91-7.43,14-13.14,28.26-13.14" style="fill:none;stroke:#171640;stroke-linecap:round;stroke-linejoin:round;stroke-width:12px"/></g></g></svg>