<svg xmlns="http://www.w3.org/2000/svg" viewBox="0 0 237.11 237.11"><title>Ativo 1</title><g id="Camada_2" data-name="Camada 2"><g id="Layer_1" data-name="Layer 1"><path d="M176.39,6.5H60.13C29.85,6.5,6.5,29.85,6.5,60.13V177c0,30.28,23.35,53.63,53.63,53.63H177c30.29,0,53.64-23.35,53.64-53.63V122.17" style="fill:none;stroke:#77ddee;stroke-linecap:round;stroke-linejoin:round;stroke-width:13px"/><path d="M176.39,6.5c15.14,0,29.44,4.93,39.36,14.86" style="fill:none;stroke:#77ddee;stroke-linecap:round;stroke-linejoin:round;stroke-width:13px"/><path d="M230.61,100.48V68" style="fill:none;stroke:#77ddee;stroke-linecap:round;stroke-linejoin:round;stroke-width:13px"/><path d="M136.12,181.46V199c0,6.15-1.59,7.74-7.76,7.75h-27c-6.09,0-7.67-1.61-7.67-7.8v-89.4a1.28,1.28,0,0,0-1.29-1.28H80.16a6.3,6.3,0,0,1-4.65-1.62,6.06,6.06,0,0,1-1.59-4.58c.1-5.79.1-11.69,0-17.54a6.11,6.11,0,0,1,1.63-4.65,6.42,6.42,0,0,1,4.83-1.61c2.17,0,4.38,0,6.52,0h3.81a2.58,2.58,0,0,0,2.58-2.57h0M136.14,78h0v.2s13.68.11,16.46.06a6.58,6.58,0,0,1,5,1.66,6.2,6.2,0,0,1,1.63,4.76c-.12,5.47-.12,11.11,0,17.24a6.17,6.17,0,0,1-1.62,4.72,6.46,6.46,0,0,1-4.72,1.66c-2.31,0-4.66,0-6.93,0-3.19,0-9.7,0-9.7,0M93.29,75.73h0a95.7,95.7,0,0,1,.85-13.44c2.63-16.73,10.56-24.88,27.36-28.13a102.15,102.15,0,0,1,31-1.14h.11A6.12,6.12,0,0,1,158,39.1V62.72a3.52,3.52,0,0,1-3.52,3.52h-2.9c-2.22,0-4.3,0-6.4,0a30.63,30.63,0,0,0-5.43.48,4.64,4.64,0,0,0-3.58,4.4c-.07,1.28,0,5.59-.06,6.86" style="fill:none;stroke:#77ddee;stroke-linecap:round;stroke-miterlimit:10;stroke-width:13px"/><line x1="136.21" y1="108.25" x2="136.12" y2="181.46" style="fill:none;stroke:#77ddee;stroke-linecap:round;stroke-miterlimit:10;stroke-width:13px"/></g></g></svg>