<svg xmlns="http://www.w3.org/2000/svg" viewBox="0 0 243.31 206.15"><title>Ativo 1</title><g id="Camada_2" data-name="Camada 2"><g id="Layer_1" data-name="Layer 1"><path d="M237.31,41.51l-17.73,8.08c.06.58.08,1.16.14,1.74A137.93,137.93,0,0,1,8.25,178.63a4.55,4.55,0,0,1,2.7-8.46l1.09.1a93.89,93.89,0,0,0,17.58-.07A130.48,130.48,0,0,0,75.3,157.51C54.73,153.41,36,143.59,27.62,129.9M227.09,15l-16,11.66a48.38,48.38,0,0,0-87.81,32.05c.22,2.55.36,5.09.39,7.65A128,128,0,0,1,73.91,53.62,129.75,129.75,0,0,1,30,18.8,4.55,4.55,0,0,0,22,20.58h0c-4.8,19.44.47,53.78,18.77,65.15" style="fill:none;stroke:#77ddee;stroke-linecap:round;stroke-linejoin:round;stroke-width:12px;fill-rule:evenodd"/><path d="M139.14,147.57c-12.27,7.22-27.62,9.89-44,8.87h-1" style="fill:none;stroke:#77ddee;stroke-linecap:round;stroke-linejoin:round;stroke-width:12px;fill-rule:evenodd"/><path d="M182.77,119h0a46.59,46.59,0,0,0-42-46.36" style="fill:none;stroke:#77ddee;stroke-linecap:round;stroke-linejoin:round;stroke-width:12px;fill-rule:evenodd"/><path d="M14.27,79.48C19.68,101.6,36,120.2,58,126.81" style="fill:none;stroke:#77ddee;stroke-linecap:round;stroke-linejoin:round;stroke-width:12px;fill-rule:evenodd"/></g></g></svg>